<svg width="838" height="140" viewBox="0 0 838 140" fill="none" xmlns="http://www.w3.org/2000/svg">
<path d="M207.083 131.25V14.5833H262.467C281.494 14.5833 291.008 24.0518 291.008 42.989V53.134C291.008 56.9665 289.875 60.2354 287.61 62.9407L281.664 70.0422L288.799 75.96C292.537 79.0035 294.406 83.5124 294.406 89.4866V102.844C294.406 121.781 284.892 131.25 265.864 131.25H207.083ZM231.547 109.269H264.845C268.243 109.269 269.942 107.578 269.942 104.197V87.2885C269.942 83.9069 268.243 82.2161 264.845 82.2161H231.547V109.269ZM231.547 60.2354H261.447C264.845 60.2354 266.544 58.5446 266.544 55.1629V41.6364C266.544 38.2547 264.845 36.5639 261.447 36.5639H231.547V60.2354Z" fill="url(#paint0_linear_931_702)"/>
<path d="M316.21 102.844V42.989C316.21 24.0518 325.723 14.5833 344.751 14.5833H383.485C402.513 14.5833 412.026 24.0518 412.026 42.989V102.844C412.026 121.781 402.513 131.25 383.485 131.25H344.751C325.723 131.25 316.21 121.781 316.21 102.844ZM340.673 104.197C340.673 107.578 342.372 109.269 345.77 109.269H382.466C385.864 109.269 387.562 107.578 387.562 104.197V41.6364C387.562 38.2547 385.864 36.5639 382.466 36.5639H345.77C342.372 36.5639 340.673 38.2547 340.673 41.6364V104.197Z" fill="url(#paint1_linear_931_702)"/>
<path d="M429.016 19.1485L432.414 14.5833H452.461L471.318 109.269H473.187L493.404 25.7427H517.528L537.745 109.269H539.613L558.471 14.5833H578.518L581.915 19.1485L558.981 131.25H520.076L505.466 69.5349L490.856 131.25H451.951L429.016 19.1485Z" fill="url(#paint2_linear_931_702)"/>
<path d="M590.759 36.5639V14.5833H686.576V36.5639H650.899V131.25H626.435V36.5639H590.759Z" fill="url(#paint3_linear_931_702)"/>
<path d="M704.635 131.25V14.5833H729.099V131.25H704.635Z" fill="url(#paint4_linear_931_702)"/>
<path d="M756.896 131.25V14.5833H837.083V36.5639H781.36V60.2354H831.986V82.2161H781.36V109.269H837.083V131.25H756.896Z" fill="url(#paint5_linear_931_702)"/>
<path fill-rule="evenodd" clip-rule="evenodd" d="M147.648 138.611C145.143 140.221 141.991 140.446 139.283 139.21L5.11623 77.9598C1.99956 76.537 3.62915e-05 73.4261 3.65886e-05 70C3.68857e-05 66.5739 1.99956 63.4631 5.11623 62.0402L139.283 0.790297C141.991 -0.446259 145.143 -0.220521 147.648 1.38942C150.152 2.99936 151.667 5.77254 151.667 8.75006L151.667 131.25C151.667 134.228 150.152 137.001 147.648 138.611ZM134.167 117.637L134.167 22.3633L29.8195 70L134.167 117.637Z" fill="#685BFC" fill-opacity="0.6"/>
<path fill-rule="evenodd" clip-rule="evenodd" d="M4.01889 1.38937C6.52364 -0.220571 9.67518 -0.446294 12.3838 0.79025L146.55 62.0402C149.667 63.463 151.667 66.5739 151.667 70C151.667 73.426 149.667 76.5369 146.55 77.9597L12.3838 139.21C9.67518 140.446 6.52364 140.221 4.01889 138.611C1.51415 137.001 1.87007e-07 134.227 1.82859e-07 131.25L1.21906e-08 8.75002C8.0423e-09 5.77249 1.51415 2.99931 4.01889 1.38937ZM17.5 22.3633L17.5 117.637L121.847 70L17.5 22.3633Z" fill="#685BFC"/>
<defs>
<linearGradient id="paint0_linear_931_702" x1="522" y1="15" x2="522.083" y2="131.25" gradientUnits="userSpaceOnUse">
<stop stop-color="#755CDB"/>
<stop offset="1" stop-color="#1B1464"/>
</linearGradient>
<linearGradient id="paint1_linear_931_702" x1="522" y1="15" x2="522.083" y2="131.25" gradientUnits="userSpaceOnUse">
<stop stop-color="#755CDB"/>
<stop offset="1" stop-color="#1B1464"/>
</linearGradient>
<linearGradient id="paint2_linear_931_702" x1="522" y1="15" x2="522.083" y2="131.25" gradientUnits="userSpaceOnUse">
<stop stop-color="#755CDB"/>
<stop offset="1" stop-color="#1B1464"/>
</linearGradient>
<linearGradient id="paint3_linear_931_702" x1="522" y1="15" x2="522.083" y2="131.25" gradientUnits="userSpaceOnUse">
<stop stop-color="#755CDB"/>
<stop offset="1" stop-color="#1B1464"/>
</linearGradient>
<linearGradient id="paint4_linear_931_702" x1="522" y1="15" x2="522.083" y2="131.25" gradientUnits="userSpaceOnUse">
<stop stop-color="#755CDB"/>
<stop offset="1" stop-color="#1B1464"/>
</linearGradient>
<linearGradient id="paint5_linear_931_702" x1="522" y1="15" x2="522.083" y2="131.25" gradientUnits="userSpaceOnUse">
<stop stop-color="#755CDB"/>
<stop offset="1" stop-color="#1B1464"/>
</linearGradient>
</defs>
</svg>
